<svg width="128" height="128" viewBox="0 0 128 128" fill="none" xmlns="http://www.w3.org/2000/svg">
  <rect width="128" height="128" rx="32" fill="#38A844"/>
  <path d="M32 66C32 48.327 46.327 34 64 34C81.673 34 96 48.327 96 66C96 83.673 81.673 98 64 98C46.327 98 32 83.673 32 66Z" fill="#F5F1EB"/>
  <path d="M68.726 48.556C70.051 46.019 66.669 43.629 64.704 45.711L43.881 67.777C42.358 69.39 43.501 72.046 45.72 72.046H59.012L53.274 84.444C51.949 86.981 55.331 89.371 57.296 87.289L78.119 65.223C79.642 63.61 78.499 60.954 76.28 60.954H62.988L68.726 48.556Z" fill="#38A844"/>
  <path d="M83 38L91 30L99 38" stroke="#F27BA5" stroke-width="7" stroke-linecap="round" stroke-linejoin="round"/>
</svg>
